<svg xmlns="http://www.w3.org/2000/svg" width="154" height="74" viewBox="0 0 154 74">
  <metadata><?xpacket begin="﻿" id="W5M0MpCehiHzreSzNTczkc9d"?>
<x:xmpmeta xmlns:x="adobe:ns:meta/" x:xmptk="Adobe XMP Core 5.6-c138 79.159824, 2016/09/14-01:09:01        ">
   <rdf:RDF xmlns:rdf="http://www.w3.org/1999/02/22-rdf-syntax-ns#">
      <rdf:Description rdf:about=""/>
   </rdf:RDF>
</x:xmpmeta>
                                                                                                    
                                                                                                    
                                                                                                    
                                                                                                    
                                                                                                    
                                                                                                    
                                                                                                    
                                                                                                    
                                                                                                    
                                                                                                    
                                                                                                    
                                                                                                    
                                                                                                    
                                                                                                    
                                                                                                    
                                                                                                    
                                                                                                    
                                                                                                    
                                                                                                    
                                                                                                    
                           
<?xpacket end="w"?></metadata>
<defs>
    <style>
      .cls-1 {
        fill-rule: evenodd;
      }
    </style>
  </defs>
  <path id="list.it" class="cls-1" d="M13.245,50.185h0a1.46,1.46,0,0,0,1.44,1.44h0a1.473,1.473,0,0,0,1.5-1.44V11.067h0a1.473,1.473,0,0,0-1.5-1.44h0a1.46,1.46,0,0,0-1.44,1.44V50.185Zm14.58,0h0a1.46,1.46,0,0,0,1.44,1.44h0a1.473,1.473,0,0,0,1.5-1.44V23.666h0a1.436,1.436,0,0,0-1.5-1.44h0a1.421,1.421,0,0,0-1.44,1.44V50.185Zm0-34.739h0a1.528,1.528,0,0,0,1.44,1.56h0a1.537,1.537,0,0,0,1.5-1.56v-1.38h0a1.473,1.473,0,0,0-1.5-1.44h0a1.46,1.46,0,0,0-1.44,1.44v1.38Zm14.94,31.979h0a17.851,17.851,0,0,0,10.86,4.2h0a11.989,11.989,0,0,0,7.32-2.34h0a7.479,7.479,0,0,0,3.36-5.94h0a7.336,7.336,0,0,0-3.3-6h0a20.436,20.436,0,0,0-7.14-2.4h-0.12a14.8,14.8,0,0,1-6-2.04h0a3.557,3.557,0,0,1-1.68-2.94h0a4.415,4.415,0,0,1,1.86-3.36h0a8.83,8.83,0,0,1,5.58-1.68h0c2.88,0,5.04,1.5,7.2,2.94h0a1.442,1.442,0,0,0,1.98-.42h0a1.526,1.526,0,0,0-.42-2.04h0c-2.28-1.44-4.98-3.18-8.76-3.18h0a12.647,12.647,0,0,0-7.2,1.98h0a7.289,7.289,0,0,0-3.18,5.76h0a6.138,6.138,0,0,0,3.18,5.28h0a16.751,16.751,0,0,0,6.66,2.28l0.12,0.06h0a14.61,14.61,0,0,1,6.24,2.16h0c1.5,1.26,2.04,2.22,2.1,3.6h0a4.457,4.457,0,0,1-2.22,3.6h0a8.866,8.866,0,0,1-5.58,1.8h0c-3.72,0-6.96-1.92-9-3.42h0a1.429,1.429,0,0,0-2.04.18h0A1.349,1.349,0,0,0,42.764,47.425Zm41.1-25.2h-3.78V11.307a1.617,1.617,0,0,0-1.56-1.44,1.548,1.548,0,0,0-1.44,1.44v10.92h-3.66c-1.44,0-1.44.72-1.44,1.44s0,1.44,1.44,1.44h3.66V46.525a5,5,0,0,0,5.16,5.1,1.606,1.606,0,0,0,1.5-1.44,1.664,1.664,0,0,0-1.5-1.5,2.3,2.3,0,0,1-2.16-2.16V25.106h3.78A1.44,1.44,0,0,0,83.863,22.226Zm14.52,26.4a3,3,0,1,0,3-3A2.971,2.971,0,0,0,98.383,48.625Zm14.52,1.56h0a1.46,1.46,0,0,0,1.44,1.44h0a1.473,1.473,0,0,0,1.5-1.44V23.666h0a1.436,1.436,0,0,0-1.5-1.44h0a1.421,1.421,0,0,0-1.44,1.44V50.185Zm0-34.739h0a1.528,1.528,0,0,0,1.44,1.56h0a1.537,1.537,0,0,0,1.5-1.56v-1.38h0a1.473,1.473,0,0,0-1.5-1.44h0a1.46,1.46,0,0,0-1.44,1.44v1.38Zm25.619,6.78h-3.78V11.307a1.617,1.617,0,0,0-1.56-1.44,1.549,1.549,0,0,0-1.44,1.44v10.92h-3.66c-1.44,0-1.44.72-1.44,1.44s0,1.44,1.44,1.44h3.66V46.525a5,5,0,0,0,5.16,5.1,1.606,1.606,0,0,0,1.5-1.44,1.664,1.664,0,0,0-1.5-1.5,2.3,2.3,0,0,1-2.16-2.16V25.106h3.78A1.44,1.44,0,1,0,138.522,22.226Z"/>
</svg>
